<?xml version="1.0" encoding="utf-8"?>
<!-- Svg Vector Icons : http://www.onlinewebfonts.com/icon -->
<!DOCTYPE svg PUBLIC "-//W3C//DTD SVG 1.1//EN" "http://www.w3.org/Graphics/SVG/1.1/DTD/svg11.dtd">
<svg version="1.1" xmlns="http://www.w3.org/2000/svg" xmlns:xlink="http://www.w3.org/1999/xlink" x="0px" y="0px" viewBox="0 0 256 256" enable-background="new 0 0 256 256" xml:space="preserve">
<metadata> Svg Vector Icons : http://www.onlinewebfonts.com/icon </metadata>
<g><g><g><path fill="#000000" d="M123.1,10.5c-1.3,0.4-3.2,1.1-4.2,1.6c-2.2,1.1-6.1,4.6-7,6.2l-0.6,1.2l-10.4,0.2c-10.1,0.1-10.5,0.2-13,1.3c-3.4,1.6-5.4,3.3-7,6.2l-1.4,2.4l-14.9,0.1C50.1,29.9,49.7,30,47.8,31c-3,1.6-5.5,4.1-6.9,6.9l-1.3,2.6V138v97.4l1.2,2.3c1.4,3,4.2,5.7,7.2,7.2l2.3,1.2H128h77.8l2.3-1.2c3-1.4,5.7-4.2,7.2-7.2l1.2-2.3V138V40.5l-1.3-2.6c-1.4-2.9-3.8-5.3-6.9-6.9c-1.9-1-2.4-1.1-16.9-1.2l-14.9-0.1l-1.4-2.4c-1.6-2.9-3.6-4.6-7-6.2c-2.4-1.2-2.9-1.2-12.9-1.3l-10.4-0.2l-1.2-1.8c-1.8-2.5-5.4-5.3-8.5-6.5C131.6,9.9,126.2,9.6,123.1,10.5z M132.6,20.9c2,1,3.6,2.9,4.9,5.6c1.3,3,2.3,3.1,15.5,3.1h11.6l1.3,1.3c1.2,1.2,1.3,1.6,1.3,4.8v3.5H128H88.8V36c0-3,0.1-3.6,1.1-4.8l1.1-1.3l12.5-0.2l12.5-0.2l1.4-1.3c0.8-0.8,1.4-1.6,1.4-1.9c0-0.3,0.6-1.4,1.4-2.4C123.1,19.8,128.1,18.6,132.6,20.9z M78.6,42.2c0,3,0.8,5.1,2.4,6.2c0.9,0.6,6.1,0.7,47,0.7c41.7,0,46.1,0,47-0.7c1.5-1.1,2.4-3.4,2.4-6.4v-2.5h12.7c14.2,0,15,0.1,16.2,3c0.6,1.3,0.6,15.4,0.6,95.6c0,84.6-0.1,94.1-0.7,95.5c-1.5,3.2,4.3,3-78.2,3c-82.5,0-76.7,0.2-78.2-3c-0.6-1.4-0.7-10.9-0.7-95.5c0-68.7,0.1-94.3,0.5-95.4c0.3-0.8,1.2-1.9,2-2.4c1.3-0.8,2.4-0.9,14.3-0.9h12.8L78.6,42.2L78.6,42.2z"/><path fill="#000000" d="M69,69.8c-3,1.1-5.4,3-7.3,5.8c-2,2.9-2.6,5.4-2.4,9.3c0.4,5.4,3.3,9.7,8.1,12.1c3.5,1.8,8.8,1.8,12.3,0.2c6.2-2.8,9.8-9.6,8.6-16.1C86.7,72.3,77.3,66.8,69,69.8z M77.4,80.5c3.4,3.8-0.6,9.7-5.4,7.7c-1.7-0.7-3.1-2.7-3.1-4.4c0-1.7,1.4-3.7,2.9-4.4C73.8,78.4,75.8,78.8,77.4,80.5z"/><path fill="#000000" d="M101.4,79.3c-1.5,0.6-2.9,2.7-2.9,4.4c0,1.7,1.4,3.7,3,4.4c2.4,1,90,1,92.3,0c3.3-1.4,4.1-5.1,1.7-7.8l-1.3-1.5l-45.7-0.1C110.3,78.7,102.6,78.8,101.4,79.3z"/><path fill="#000000" d="M70.2,108.8c-6.7,1.8-11,7.4-11,14.3c0,1.6,0.4,3.9,0.8,5.1c1.2,3.3,4.6,6.8,8,8.3c2.4,1.1,3.3,1.3,6.4,1.1c2.5-0.1,4.2-0.5,5.8-1.2c6.3-3.1,9.6-10.1,7.9-16.6c-1.5-5.8-5.1-9.4-10.8-10.9C74.3,108,73.1,108,70.2,108.8z M77.3,119.7c3.1,3.1,0.7,8.4-3.7,8.4c-2,0-4.6-2.6-4.6-4.6c0-3,2-5,5-5.1C75.5,118.3,76.2,118.6,77.3,119.7z"/><path fill="#000000" d="M100.8,119c-1.4,0.8-2.3,2.4-2.4,4.3c0,1.2,0.4,2,1.6,3.1l1.6,1.6h45.8c41.9,0,45.9,0,47.1-0.8c2.7-1.6,3.1-5.4,1-7.6l-1.3-1.3H148C110.6,118.4,101.7,118.5,100.8,119z"/><path fill="#000000" d="M68.4,148.7c-3,1.1-7.4,5.6-8.5,8.6c-3.3,9.8,3.6,19.9,13.8,19.9c5.8,0,10.6-3,13.3-8.4c2.9-5.8,1.7-12.3-3.1-16.9C80.1,148.2,73.7,146.8,68.4,148.7z M76.2,158.2c2.7,1.4,3.2,5.5,1,7.7c-2.2,2.2-6.3,1.7-7.7-1c-1.1-2.2-0.8-4,0.9-5.8C72.2,157.4,74,157.1,76.2,158.2z"/><path fill="#000000" d="M100,159.2c-1.1,1.1-1.6,2-1.6,3c0,2,1.1,3.9,2.5,4.6c0.9,0.4,12.5,0.6,47.1,0.6h46l1.3-1.3c1.5-1.5,1.8-3.6,0.8-5.8c-1.2-2.6,0.9-2.5-48.9-2.5h-45.8L100,159.2z"/><path fill="#000000" d="M69,188c-3,1.1-5.4,3-7.3,5.8c-2,2.9-2.6,5.4-2.4,9.3c0.4,5.4,3.3,9.7,8.1,12.1c3.6,1.8,8.8,1.8,12.4,0.2c6-2.7,9.7-9.7,8.5-16.1C86.5,190.4,77.3,185,69,188z M77.4,198.7c3.4,3.8-0.6,9.6-5.4,7.7c-1.7-0.7-3.1-2.7-3.1-4.4c0-1.7,1.4-3.7,2.9-4.4C73.8,196.6,75.8,197,77.4,198.7z"/><path fill="#000000" d="M101.4,197.5c-1.5,0.6-2.9,2.7-2.9,4.4c0,0.6,0.3,1.6,0.7,2.4c1.3,2.7,1.8,2.7,24,2.7c22.4,0,22.5,0,23.9-3c0.4-0.8,0.7-1.8,0.7-2.1c0-0.3-0.3-1.2-0.7-2.1c-1.4-3-1.5-3-24.1-3C106.9,196.9,102.6,197,101.4,197.5z"/></g></g></g>
</svg>