<svg xmlns="http://www.w3.org/2000/svg" enable-background="new 0 0 2000 2000" viewBox="0 0 2000 2000" id="graduation-cap">
  <path fill="#464b4f" d="M1687.7393799,794.0876465l-683.107605-259.8632813c-3.1296387-1.1900024-6.5884399-1.1900024-9.7180786,0
	l-683.107605,259.8632813C306.5055237,796.1051025,303,801.1876831,303,806.8597412
	c0,5.6742554,3.5055237,10.7568359,8.8060913,12.774292l101.3179626,38.5419312v424.9359741
	c-16.175293,18.090332-62.427887,72.8587646-62.427887,107.6115723c0,41.9619141,34.138916,76.1008301,76.0985718,76.1008301
	c41.9640808,0,76.1029968-34.138916,76.1029968-76.1008301c0-34.7617188-46.2770386-89.5500488-62.4411926-107.6260986V868.5736084
	l94.5493164,35.9695435v218.4507446c0,0.0089111,0,0.0178223,0,0.027832v148.4246826
	c0,4.5632324,2.2799072,8.8261719,6.0723877,11.3618164c151.9547119,101.5604248,306.2871704,153.0557861,458.7044678,153.0557861
	c152.4195557,0,306.7498779-51.4953613,458.7044678-153.0557861c3.7946777-2.5356445,6.0723877-6.798584,6.0723877-11.3618164
	v-148.4246826c0-0.0100098,0-0.0189209,0-0.027832V904.5342407l223.1798096-84.9002075
	c5.3005371-2.0174561,8.8060303-7.1000366,8.8060303-12.774292
	C1696.5454102,801.1876831,1693.039917,796.1051025,1687.7393799,794.0876465z M426.7947388,1439.4918213
	c-26.8898621,0-48.7660828-21.8773193-48.7660828-48.7683105c0-18.2716064,26.8008728-55.8226318,48.7660828-81.6904297
	c21.9674072,25.8677979,48.7705078,63.4188232,48.7705078,81.6904297
	C475.5652466,1417.614502,453.6867981,1439.4918213,426.7947388,1439.4918213z M562.3383179,1264.1138916v-115.9639893
	c145.0770874,92.3762207,292.1293335,139.220459,437.444397,139.220459c145.3172607,0,292.3696289-46.8442383,437.444458-139.220459
	v115.9639893C1146.9350586,1455.4213867,852.6303711,1455.4213867,562.3383179,1264.1138916z M1437.2271729,1115.5847168
	c-290.3054199,191.322998-584.5834351,191.322998-874.888855,0V914.9396362l432.5753784,164.5587769
	c1.565918,0.5949707,3.2119141,0.8930664,4.8579102,0.8930664c1.6482544,0,3.2964478-0.2980957,4.8601685-0.8930664
	l432.5953979-164.5654907V1115.5847168z M999.7716064,1052.1036377L432.1798096,836.1829834
	c-0.0778503-0.0333862-0.1579285-0.05896-0.2357788-0.0911865l-76.8414612-29.2320557l644.6690674-245.2406006
	l644.6712646,245.2406006L999.7716064,1052.1036377z"></path>
</svg>
