<?xml version="1.0" encoding="utf-8"?>
<!-- Svg Vector Icons : http://www.onlinewebfonts.com/icon -->
<!DOCTYPE svg PUBLIC "-//W3C//DTD SVG 1.1//EN" "http://www.w3.org/Graphics/SVG/1.1/DTD/svg11.dtd">
<svg version="1.1" xmlns="http://www.w3.org/2000/svg" xmlns:xlink="http://www.w3.org/1999/xlink" x="0px" y="0px" viewBox="0 0 256 256" enable-background="new 0 0 256 256" xml:space="preserve">
<metadata> Svg Vector Icons : http://www.onlinewebfonts.com/icon </metadata>
<g><g><g><path fill="#000000" d="M11.8,19.7L10,21.4V128v106.6l1.8,1.8l1.8,1.8H128h114.4l1.8-1.8c2-2,2.4-4.5,0.9-6.6c-2-2.8,4.4-2.7-114.5-2.7H20.5V124.3V21.4l-1.8-1.8c-1.3-1.3-2.3-1.8-3.5-1.8C14,17.9,13.1,18.3,11.8,19.7z"/><path fill="#000000" d="M184.3,67.1c-2,1.2-3.1,4-2.4,5.9c0.3,0.7,1.1,1.8,1.9,2.6l1.4,1.3l18.2,0.3l18.2,0.3l-41.9,40.9c-23,22.5-42.9,41.8-44.3,43l-2.4,2l-14.8-14.8c-15.6-15.6-16.5-16.3-19.4-14.7c-2.5,1.3-61.3,52.5-61.8,53.7c-0.8,2.1-0.5,3.7,0.9,5.3c1.6,1.9,4.2,2.6,6.1,1.5c0.7-0.4,13-10.8,27.2-23c14.2-12.3,26.6-23,27.6-23.8l1.7-1.5l14.8,14.7c8.1,8.1,15.4,14.9,16,15.1c3.4,1,2.6,1.7,51.5-46L230,84.3l0.3,19.4c0.2,10.6,0.4,19.4,0.4,19.5c0.1,0.1,0.9,0.6,1.8,1.2c2.5,1.6,4.4,1.4,6.4-0.7l1.8-1.8V95.9c0-28.4,0.1-27.3-3.1-29c-1.3-0.7-5.3-0.8-26.6-0.8C187.2,66.1,185.8,66.2,184.3,67.1z"/></g></g></g>
</svg>