<?xml version="1.0" encoding="utf-8"?>
<!-- Generator: Adobe Illustrator 26.0.3, SVG Export Plug-In . SVG Version: 6.00 Build 0)  -->
<svg version="1.0" id="katman_1" xmlns="http://www.w3.org/2000/svg" xmlns:xlink="http://www.w3.org/1999/xlink" x="0px" y="0px"
	 viewBox="0 0 600 450" style="enable-background:new 0 0 600 450;" xml:space="preserve">
<style type="text/css">
	.st0{fill:#010202;}
</style>
<g id="Credit-card-108">
	<g id="credit-card-2-3" transform="translate(18.000000, 27.000000)">
		<path id="Shape" class="st0" d="M442.7,147.3H408l-17.6-69c-2.2-8.7-11-13.9-19.7-11.7l-40.1,10.2c-2.7,0.7-4.3,3.4-3.6,6.1
			c0.7,2.7,3.4,4.3,6.1,3.6l40.1-10.2c3.3-0.8,6.6,1.1,7.4,4.4l1.9,7.6L117.9,156l-1.9-7.6c-0.4-1.6-0.2-3.2,0.7-4.6
			c0.8-1.4,2.2-2.4,3.7-2.8l182.1-46.5c2.7-0.7,4.3-3.4,3.6-6.1c-0.7-2.7-3.4-4.3-6.1-3.6l-182.1,46.5c-8.7,2.2-13.9,11.1-11.7,19.7
			l37.3,146.6c1.9,7.3,8.5,12.2,15.7,12.2c1.3,0,2.7-0.2,4-0.5l2.4-0.6v6.2c0,8.9,7.3,16.2,16.2,16.2h260.9
			c8.9,0,16.2-7.3,16.2-16.2V163.5C458.9,154.6,451.7,147.3,442.7,147.3z M165.6,298.1l-4.9,1.2c-3.3,0.8-6.6-1.1-7.4-4.4
			l-22.9-89.7l35.2-9V298.1z M165.6,163.5v22.3l-37.7,9.6l-7.5-29.6l48.8-12.5C166.9,156.1,165.6,159.7,165.6,163.5z M397.6,147.3
			h-40.1l37.7-9.6L397.6,147.3z M385.1,98.2l7.5,29.6l-76,19.4H193L385.1,98.2z M442.7,320.9H181.8c-3.4,0-6.1-2.7-6.1-6.1v-12.7
			V163.5c0-3.4,2.7-6.1,6.1-6.1h260.9c3.4,0,6.1,2.7,6.1,6.1v151.3l0,0C448.8,318.2,446.1,320.9,442.7,320.9z"/>
		<path id="Path" class="st0" d="M306.6,272.1H194.2c-2.8,0-5.2,2.2-5.2,4.9s2.3,4.9,5.2,4.9h112.3c2.8,0,5.2-2.2,5.2-4.9
			C311.7,274.3,309.4,272.1,306.6,272.1z"/>
		<path id="Shape_00000031196702791828817630000006486131987030013588_" class="st0" d="M392.1,178.9c-7.1,0-13.7,2.4-19,6.5
			c-5.5-4.2-12.1-6.5-19-6.5c-17.9,0-32.5,15.4-32.5,34.3c0,18.9,14.6,34.3,32.5,34.3c6.9,0,13.5-2.3,19-6.5
			c5.3,4.1,11.9,6.5,19,6.5c17.9,0,32.5-15.4,32.5-34.3C424.6,194.3,410,178.9,392.1,178.9z M359.6,214.9c0,0.1,0,0.3,0,0.4
			c0,0.4,0.1,0.9,0.1,1.3c0,0.1,0,0.2,0,0.3c0.6,6.1,2.7,11.8,6.1,16.7c-3.5,2.3-7.6,3.5-11.9,3.5c-12.5,0-22.6-10.7-22.6-23.9
			c0-13.2,10.2-23.9,22.6-23.9c4.2,0,8.3,1.2,11.9,3.5c-3.4,4.9-5.5,10.6-6.1,16.7c0,0.1,0,0.2,0,0.3c0,0.4-0.1,0.9-0.1,1.3
			c0,0.1,0,0.3,0,0.4c0,0.5,0,1.1,0,1.6S359.6,214.4,359.6,214.9z M392.1,237.2c-6.2,0-11.8-2.6-15.9-6.9c-0.1-0.1-0.2-0.2-0.3-0.3
			c-0.2-0.2-0.4-0.4-0.6-0.6c0-0.1-0.1-0.1-0.1-0.2c-0.2-0.3-0.4-0.5-0.6-0.8c0,0,0,0,0,0c-3.2-4.1-5.2-9.4-5.2-15.2
			c0-5.8,1.9-11.1,5.2-15.2c0,0,0,0,0,0c0.2-0.3,0.4-0.5,0.6-0.8c0-0.1,0.1-0.1,0.1-0.2c0.2-0.2,0.4-0.4,0.6-0.6
			c0.1-0.1,0.2-0.2,0.2-0.3c4.1-4.3,9.7-6.9,15.9-6.9c12.5,0,22.6,10.7,22.6,23.9C414.7,226.4,404.6,237.2,392.1,237.2z"/>
		<path id="Shape_00000163043591036997573540000015134943131763112579_" class="st0" d="M234.3,183.8h-21.8
			c-10.2,0-18.6,8.3-18.6,18.6v21.8c0,10.2,8.3,18.6,18.6,18.6h21.8c10.2,0,18.6-8.3,18.6-18.6v-21.8
			C252.9,192.2,244.5,183.8,234.3,183.8z M242.9,215.9h-10.6c-2.7,0-5,2.2-5,5c0,2.7,2.2,5,5,5h10.4c-0.8,3.9-4.3,6.9-8.5,6.9h-21.8
			c-4.2,0-7.7-3-8.5-6.9h10.4c2.7,0,5-2.2,5-5c0-2.7-2.2-5-5-5h-10.6v-4.3h10.6c2.7,0,5-2.2,5-5c0-2.7-2.2-5-5-5h-10.6
			c0.3-4.4,4.1-8,8.6-8h21.8c4.5,0,8.3,3.5,8.6,8h-10.6c-2.7,0-5,2.2-5,5c0,2.7,2.2,5,5,5h10.6V215.9L242.9,215.9z"/>
		<path id="Path_00000151543112352013315510000010396331842744570302_" class="st0" d="M424.4,291.8H248.1c-2.8,0-5.1,2.2-5.1,4.9
			c0,2.7,2.3,4.9,5.1,4.9h176.3c2.8,0,5.1-2.2,5.1-4.9C429.5,294,427.2,291.8,424.4,291.8z"/>
		<path id="Path_00000004530847559093054330000009086587283089904025_" class="st0" d="M218.6,291.8h-19.7c-2.7,0-4.8,2.2-4.8,4.9
			c0,2.7,2.2,4.9,4.8,4.9h19.7c2.7,0,4.8-2.2,4.8-4.9C223.4,294,221.3,291.8,218.6,291.8z"/>
	</g>
</g>
</svg>
