<svg class="svg-icon" style="width: 1.064453125em; height: 1em;vertical-align: middle;fill: currentColor;overflow: hidden;" viewBox="0 0 1090 1024" version="1.1" xmlns="http://www.w3.org/2000/svg">
	<path d="M325.515447 393.782114c-14.152846-2.497561-26.64065-6.660163-33.300813-19.980488-2.497561-5.827642-5.827642-11.655285-5.827642-18.315447 0-19.147967-0.83252-37.463415 2.497561-56.611382 2.497561-16.650407 21.645528-27.473171 42.458536-28.305691h115.720326v-33.300813c0-29.138211 17.482927-46.621138 46.621138-46.621139h108.227642c29.970732 0 47.453659 17.482927 47.453659 47.453659v32.468293h60.773983c22.478049 0 44.956098 0 68.266667 2.497561 17.482927 1.665041 28.305691 15.817886 28.305691 34.133333V357.98374c0 15.817886-11.655285 29.970732-26.64065 32.468293l-9.990244 2.49756v352.988618c0 23.310569-5.827642 44.956098-22.478049 62.439025-14.152846 14.985366-31.635772 24.143089-52.44878 24.143089H402.107317c-31.635772 0-64.936585-26.64065-70.764228-58.276423-2.497561-12.487805-4.162602-24.143089-4.162601-36.630894V406.269919c-1.665041-4.162602-1.665041-7.492683-1.665041-12.487805z m41.626016 0V749.268293c0 28.305691 16.650407 44.123577 45.788618 44.123577h267.239025c29.970732 0 46.621138-15.817886 46.621138-46.621138V403.772358v-10.822765c-120.715447 0.83252-239.765854 0.83252-359.648781 0.832521z m178.99187-41.626016h197.307317c14.152846 0 23.310569-7.492683 23.31057-19.147968s-9.157724-19.980488-23.31057-19.980488H346.328455c-10.822764 1.665041-19.147967 9.990244-19.147967 19.147968 0 9.990244 9.157724 18.315447 20.813008 19.147967h8.325203c62.439024 0.83252 125.710569 0.83252 189.814634 0.832521z m-59.108943-81.586992h119.050407v-16.650407c-0.83252-13.320325-8.325203-20.813008-21.645529-21.645528-25.80813-0.83252-50.78374-0.83252-76.59187 0-14.152846 0-20.813008 8.325203-21.645528 22.478049 0.83252 4.995122 0.83252 10.822764 0.83252 15.817886z" fill="white"/>
	<path d="M667.681301 613.56748v113.222764c0 18.315447-7.492683 27.473171-20.813008 28.305691-13.320325 0-20.813008-9.990244-20.813008-28.305691V500.344715c0-16.650407 4.995122-24.143089 16.650406-26.64065 11.655285-2.497561 22.478049 4.162602 24.143089 15.817886 0.83252 4.162602 0.83252 9.157724 0.832521 13.320325v110.725204zM466.211382 613.56748v119.882927c0 11.655285-7.492683 19.980488-18.315447 20.813008-9.990244 0.83252-19.147967-5.827642-21.645528-16.650407-0.83252-4.162602-1.665041-9.157724-1.665041-13.320325V533.645528c0-11.655285-0.83252-24.143089 0-35.798374 0.83252-7.492683 4.162602-14.985366 9.157723-20.813008 4.995122-5.827642 14.152846-5.827642 20.813009-2.497561 7.492683 4.162602 11.655285 9.990244 11.655284 19.147968v119.882927zM526.152846 613.56748V496.182114c0-16.650407 12.487805-26.64065 26.64065-21.645529 9.157724 2.497561 14.152846 10.822764 14.152845 23.310569v232.273171c0 18.315447-13.320325 29.970732-28.305691 23.310569-9.990244-4.162602-13.320325-11.655285-13.320325-22.478048 0.83252-39.128455 0.83252-78.256911 0.832521-117.385366z" fill="white"/>
</svg>