<?xml version="1.0" encoding="UTF-8" standalone="no"?>
<svg
   xmlns:dc="http://purl.org/dc/elements/1.1/"
   xmlns:cc="http://creativecommons.org/ns#"
   xmlns:rdf="http://www.w3.org/1999/02/22-rdf-syntax-ns#"
   xmlns:svg="http://www.w3.org/2000/svg"
   xmlns="http://www.w3.org/2000/svg"
   xmlns:sodipodi="http://sodipodi.sourceforge.net/DTD/sodipodi-0.dtd"
   xmlns:inkscape="http://www.inkscape.org/namespaces/inkscape"
   viewBox="0 0 100 100"
   x="0px"
   y="0px"
   version="1.1"
   id="svg8"
   sodipodi:docname="noun_620383.svg"
   inkscape:version="0.92.2 5c3e80d, 2017-08-06">
  <metadata
     id="metadata14">
    <rdf:RDF>
      <cc:Work
         rdf:about="">
        <dc:format>image/svg+xml</dc:format>
        <dc:type
           rdf:resource="http://purl.org/dc/dcmitype/StillImage" />
      </cc:Work>
    </rdf:RDF>
  </metadata>
  <defs
     id="defs12" />
  <sodipodi:namedview
     pagecolor="#ffffff"
     bordercolor="#666666"
     borderopacity="1"
     objecttolerance="10"
     gridtolerance="10"
     guidetolerance="10"
     inkscape:pageopacity="0"
     inkscape:pageshadow="2"
     inkscape:window-width="640"
     inkscape:window-height="480"
     id="namedview10"
     showgrid="false"
     inkscape:zoom="2.36"
     inkscape:cx="50"
     inkscape:cy="50"
     inkscape:window-x="0"
     inkscape:window-y="0"
     inkscape:window-maximized="0"
     inkscape:current-layer="svg8" />
  <title
     id="title2">BS-Warning-Light-Rounded-Circle</title>
  <path
     d="M50,8A42,42,0,1,1,8,50,42,42,0,0,1,50,8m0-3A45,45,0,1,0,95,50,45,45,0,0,0,50,5Z"
     id="path4"
     style="fill:#d40000" />
  <path
     d="M47.08,46.44q-.79-4-1.18-6.42t-.51-3.54q-.11-1.15-.11-2a4.3,4.3,0,0,1,1.29-3.25,5.36,5.36,0,0,1,6.84,0,4.3,4.3,0,0,1,1.29,3.25q0,.84-.11,2T54.1,40q-.39,2.38-1.18,6.42T50.79,57.1H49.21Q47.87,50.48,47.08,46.44Zm-.34,15.88a4.6,4.6,0,0,1,7.85,3.25,4.16,4.16,0,0,1-1.35,3.17,4.82,4.82,0,0,1-6.51,0,4.16,4.16,0,0,1-1.35-3.17A4.43,4.43,0,0,1,46.75,62.31Z"
     id="path6"
     style="fill:#d40000" />
</svg>
