<?xml version="1.0" encoding="utf-8"?>
<!-- Svg Vector Icons : http://www.onlinewebfonts.com/icon -->
<!DOCTYPE svg PUBLIC "-//W3C//DTD SVG 1.1//EN" "http://www.w3.org/Graphics/SVG/1.1/DTD/svg11.dtd">
<svg version="1.1" xmlns="http://www.w3.org/2000/svg" xmlns:xlink="http://www.w3.org/1999/xlink" x="0px" y="0px" viewBox="0 0 256 256" enable-background="new 0 0 256 256" xml:space="preserve">
<metadata> Svg Vector Icons : http://www.onlinewebfonts.com/icon </metadata>
<g><g><path fill="#000000" d="M237.5,136.5H85.6c-4.6,0-8.4-3.8-8.4-8.4l0,0c0-4.6,3.8-8.4,8.4-8.4h151.9c4.6,0,8.4,3.8,8.4,8.4l0,0C245.9,132.7,242.1,136.5,237.5,136.5z"/><path fill="#000000" d="M231.9,133.9l-47.5-45.2c-3.3-3.2-3.5-8.5-0.3-11.8l0,0c3.2-3.3,8.5-3.5,11.8-0.3l47.5,45.2c3.3,3.2,3.5,8.5,0.3,11.8l0,0C240.5,137,235.2,137.1,231.9,133.9z"/><path fill="#000000" d="M243.2,134.1l-47.5,45.2c-3.3,3.2-8.7,3-11.8-0.3l0,0c-3.2-3.3-3-8.6,0.3-11.8l47.5-45.2c3.3-3.2,8.7-3,11.8,0.3l0,0C246.7,125.6,246.6,130.9,243.2,134.1z"/><path fill="#000000" d="M42.6,26.8H56l0,0h43.2c4.5,0,8.2-3.7,8.2-8.2l0,0c0-4.5-3.7-8.2-8.2-8.2H87.1c-0.9-0.2-1.9-0.3-2.8-0.3h-59C16.9,10.1,10,17,10,25.4v205.3c0,8.4,6.9,15.3,15.3,15.3h59c2.4,0,4.6,0,6.6-0.3h8.2c4.5,0,8.2-3.7,8.2-8.2l0,0c0-4.5-3.7-8.2-8.2-8.2H56h0H42.6c-8.4,0-15.3-13.4-15.3-21.8V42.1C27.3,33.7,34.2,26.8,42.6,26.8z"/></g></g>
</svg>